<?xml version="1.0" encoding="utf-8"?>
<!-- Generator: Adobe Illustrator 21.1.0, SVG Export Plug-In . SVG Version: 6.00 Build 0)  -->
<svg version="1.1" id="Слой_1" xmlns="http://www.w3.org/2000/svg" xmlns:xlink="http://www.w3.org/1999/xlink" x="0px" y="0px"
	 viewBox="0 0 500 500" style="enable-background:new 0 0 500 500;" xml:space="preserve">
<style type="text/css">
	.st0{fill:#7A252B;}
</style>
<g>
	<path class="st0" d="M175.2,273c1.6,0,2.9,0.6,4.1,1.7c1.1,1.1,1.7,2.5,1.7,4v43.5c0,1.6-0.6,2.9-1.7,4c-1.1,1.1-2.5,1.7-4.1,1.7
		h-57.5c-1.6,0-2.9-0.6-4.1-1.7s-1.7-2.5-1.7-4v-43.5c0-1.6,0.6-2.9,1.7-4c1.1-1.1,2.5-1.7,4.1-1.7C117.8,273,175.2,273,175.2,273z
		 M118.1,278c-0.3,0-0.6,0.1-0.8,0.3c-0.2,0.2-0.3,0.5-0.3,0.8v7.9h59v-7.9c0-0.3-0.1-0.6-0.3-0.8c-0.2-0.2-0.5-0.3-0.8-0.3
		C174.9,278,118.1,278,118.1,278z M174.9,323c0.3,0,0.6-0.1,0.8-0.3c0.2-0.2,0.3-0.5,0.3-0.8V300h-59v21.8c0,0.3,0.1,0.6,0.3,0.8
		c0.2,0.2,0.5,0.3,0.8,0.3C118.1,323,174.9,323,174.9,323z M121,319v-5h9v5H121z M135,319v-5h14v5C149,319,135,319,135,319z"/>
</g>
</svg>
